<?xml version="1.0" encoding="utf-8"?>
<!-- Generator: Adobe Illustrator 25.1.0, SVG Export Plug-In . SVG Version: 6.00 Build 0)  -->
<svg version="1.1" id="圖層_1" xmlns="http://www.w3.org/2000/svg" xmlns:xlink="http://www.w3.org/1999/xlink" x="0px" y="0px"
	 viewBox="0 0 56.7 56.7" style="enable-background:new 0 0 56.7 56.7;" xml:space="preserve">
<style type="text/css">
	.st0{display:none;}
	.st1{display:inline;fill-rule:evenodd;clip-rule:evenodd;}
	.st2{fill-rule:evenodd;clip-rule:evenodd;fill:#FFFFFF;}
</style>
<g id="圖層_1_1_" class="st0">
	<path class="st1" d="M35.3,40.3h-14c-2.8,0-5-2.2-5-5v-14c0-2.8,2.2-5,5-5h14c2.8,0,5,2.2,5,5v14C40.3,38.1,38.1,40.3,35.3,40.3z
		 M36.3,27.8c0-3.6-3.6-6.5-8-6.5s-8,2.9-8,6.5c0,3.2,2.8,5.9,6.7,6.4c0.3,0.1,0.6,0.2,0.7,0.4c0.1,0.2,0.1,0.5,0,0.7L27.6,36
		c0,0.2-0.2,0.8,0.7,0.4c0.9-0.4,4.6-2.7,6.3-4.6l0,0C35.7,30.5,36.3,29.2,36.3,27.8z M25.3,29.9h-2.2H23l0,0l0,0l0,0v-0.1v-3.6
		c0-0.1,0.1-0.2,0.2-0.2h0.6c0.1,0,0.2,0.1,0.2,0.2V29h1.3c0.1,0,0.2,0.1,0.2,0.2v0.6C25.5,29.8,25.4,29.9,25.3,29.9z M33.6,29.9
		h-2.2h-0.1l0,0v-0.1v-3.6v-0.1l0,0h0.1h2.2c0.1,0,0.2,0.1,0.2,0.2v0.6c0,0.1-0.1,0.2-0.2,0.2h-1.5v0.6h1.5c0.1,0,0.2,0.1,0.2,0.2
		v0.6c0,0.1-0.1,0.2-0.2,0.2h-1.5v0.6h1.5c0.1,0,0.2,0.1,0.2,0.2v0.6C33.8,29.8,33.7,29.9,33.6,29.9z M26.7,29.9h-0.6
		c-0.1,0-0.2-0.1-0.2-0.2v-3.5c0-0.1,0.1-0.2,0.2-0.2h0.6c0.1,0,0.2,0.1,0.2,0.2v3.5C26.8,29.8,26.8,29.9,26.7,29.9z M28.1,29.9
		h-0.6c-0.1,0-0.2-0.1-0.2-0.2v-3.5c0-0.1,0.1-0.2,0.2-0.2h0.6l0,0l0,0l0,0l0,0l0,0l0,0l0,0l0,0l0,0l0,0l0,0l0,0l1.6,2.2v-2
		c0-0.1,0.1-0.2,0.2-0.2h0.6c0.1,0,0.2,0.1,0.2,0.2v3.5c0,0.1-0.1,0.2-0.2,0.2h-0.6l0,0l0,0l0,0l0,0l0,0l0,0l0,0l0,0l-1.6-2.2v2.1
		C28.2,29.8,28.2,29.9,28.1,29.9z"/>
</g>
<g id="圖層_2_1_">
	<path class="st2" d="M12.9,37.6h-11H1.4l0,0l0,0l0,0v-0.5v-18c0-0.5,0.5-1,1-1h3c0.5,0,1,0.5,1,1v14h6.5c0.5,0,1,0.5,1,1v3
		C13.9,37.1,13.4,37.6,12.9,37.6z"/>
	<path class="st2" d="M54.3,37.6h-11h-0.5l0,0v-0.5v-18v-0.5l0,0h0.5h11c0.5,0,1,0.5,1,1v3c0,0.5-0.5,1-1,1h-7.5v3h7.5
		c0.5,0,1,0.5,1,1v3c0,0.5-0.5,1-1,1h-7.5v3h7.5c0.5,0,1,0.5,1,1v3C55.3,37.1,54.8,37.6,54.3,37.6z"/>
	<path class="st2" d="M19.9,37.6h-3c-0.5,0-1-0.5-1-1V19.1c0-0.5,0.5-1,1-1h3c0.5,0,1,0.5,1,1v17.5C20.4,37.1,20.4,37.6,19.9,37.6z"
		/>
	<path class="st2" d="M26.9,37.6h-3c-0.5,0-1-0.5-1-1V19.1c0-0.5,0.5-1,1-1h3l0,0l0,0l0,0l0,0l0,0l0,0l0,0l0,0l0,0l0,0l0,0l0,0l8,11
		v-10c0-0.5,0.5-1,1-1h3c0.5,0,1,0.5,1,1v17.5c0,0.5-0.5,1-1,1h-3l0,0l0,0l0,0l0,0l0,0l0,0l0,0l0,0l-8-11v10.5
		C27.3,37.1,27.3,37.6,26.9,37.6z"/>
	<path class="st2" d="M12.9,37.6h-11H1.4l0,0l0,0l0,0v-0.5v-18c0-0.5,0.5-1,1-1h3c0.5,0,1,0.5,1,1v14h6.5c0.5,0,1,0.5,1,1v3
		C13.9,37.1,13.4,37.6,12.9,37.6z"/>
	<path class="st2" d="M54.3,37.6h-11h-0.5l0,0v-0.5v-18v-0.5l0,0h0.5h11c0.5,0,1,0.5,1,1v3c0,0.5-0.5,1-1,1h-7.5v3h7.5
		c0.5,0,1,0.5,1,1v3c0,0.5-0.5,1-1,1h-7.5v3h7.5c0.5,0,1,0.5,1,1v3C55.3,37.1,54.8,37.6,54.3,37.6z"/>
	<path class="st2" d="M19.9,37.6h-3c-0.5,0-1-0.5-1-1V19.1c0-0.5,0.5-1,1-1h3c0.5,0,1,0.5,1,1v17.5C20.4,37.1,20.4,37.6,19.9,37.6z"
		/>
	<path class="st2" d="M26.9,37.6h-3c-0.5,0-1-0.5-1-1V19.1c0-0.5,0.5-1,1-1h3l0,0l0,0l0,0l0,0l0,0l0,0l0,0l0,0l0,0l0,0l0,0l0,0l8,11
		v-10c0-0.5,0.5-1,1-1h3c0.5,0,1,0.5,1,1v17.5c0,0.5-0.5,1-1,1h-3l0,0l0,0l0,0l0,0l0,0l0,0l0,0l0,0l-8-11v10.5
		C27.3,37.1,27.3,37.6,26.9,37.6z"/>
</g>
</svg>
