<?xml version="1.0" encoding="utf-8"?>
<!-- Generator: Adobe Illustrator 25.1.0, SVG Export Plug-In . SVG Version: 6.00 Build 0)  -->
<svg version="1.1" xmlns="http://www.w3.org/2000/svg" xmlns:xlink="http://www.w3.org/1999/xlink" x="0px" y="0px"
	 viewBox="0 0 56.7 56.7" style="enable-background:new 0 0 56.7 56.7;" xml:space="preserve">
<style type="text/css">
	.st0{display:none;}
	.st1{display:inline;fill-rule:evenodd;clip-rule:evenodd;}
	.st2{fill-rule:evenodd;clip-rule:evenodd;fill:#FFFFFF;}
</style>
<g id="圖層_1" class="st0">
	<path class="st1" d="M28.3,16.3c-6.6,0-12,5-12,11.1c0,3.5,1.7,6.6,4.5,8.7v4.2l4.1-2.2c1.1,0.3,2.2,0.5,3.4,0.5
		c6.6,0,12-5,12-11.1C40.3,21.3,35,16.3,28.3,16.3z M29.5,31.3l-3.1-3.3l-6,3.3l6.6-7l3.1,3.3l5.9-3.3
		C36.1,24.3,29.5,31.3,29.5,31.3z"/>
</g>
<g id="圖層_2">
	<polygon class="st2" points="32.6,40.4 22,29.1 1.4,40.4 24.1,16.3 34.9,27.6 55.3,16.3 	"/>
</g>
</svg>
