<?xml version="1.0" encoding="utf-8"?>
<!-- Generator: Adobe Illustrator 25.1.0, SVG Export Plug-In . SVG Version: 6.00 Build 0)  -->
<svg version="1.1" id="圖層_1" xmlns="http://www.w3.org/2000/svg" xmlns:xlink="http://www.w3.org/1999/xlink" x="0px" y="0px"
	 viewBox="0 0 56.7 56.7" style="enable-background:new 0 0 56.7 56.7;" xml:space="preserve">
<style type="text/css">
	.st0{display:none;}
	.st1{display:inline;fill:#FFFFFF;}
	.st2{fill:#FFFFFF;}
	.st3{fill:none;stroke:#FFFFFF;stroke-width:2;stroke-miterlimit:10;}
</style>
<g id="Layer_1" class="st0">
	<path class="st1" d="M164.2-68.1C152.7-80.9,139.9-81,134-81.7C91.7-85,28.4-85,28.4-85h-0.1c0,0-63.4,0-105.6,3.3
		c-5.9,0.7-18.8,0.8-30.2,13.6c-9,9.8-12,32-12,32s-3,26.1-3,52.1v24.4c0,26.1,3,52.1,3,52.1s2.9,22.2,12,32
		c11.5,12.8,26.6,12.4,33.3,13.8c24.2,2.5,102.7,3.2,102.7,3.2s63.4-0.1,105.7-3.4c5.9-0.8,18.8-0.8,30.2-13.6c9-9.8,12-32,12-32
		s3-26.1,3-52.1V16c0-26.1-3-52.1-3-52.1S173.3-58.3,164.2-68.1z M-9.4,84.9V-28.3L85,28.3L-9.4,84.9z"/>
</g>
<g id="圖層_2_1_">
	<polygon class="st2" points="21.7,38.4 21.7,18.2 38.6,28.3 	"/>
	<path class="st3" d="M52.7,11.1c-2.1-2.3-4.3-2.3-5.4-2.4c-7.5-0.6-18.8-0.6-18.8-0.6h0c0,0-11.3,0-18.8,0.6
		c-1.1,0.1-3.4,0.1-5.4,2.4c-1.6,1.7-2.1,5.7-2.1,5.7s-0.5,4.7-0.5,9.3v4.4c0,4.7,0.5,9.3,0.5,9.3s0.5,4,2.1,5.7
		c2.1,2.3,4.7,2.2,5.9,2.5c4.3,0.4,18.3,0.6,18.3,0.6s11.3,0,18.9-0.6c1.1-0.1,3.4-0.1,5.4-2.4c1.6-1.7,2.1-5.7,2.1-5.7
		s0.5-4.7,0.5-9.3v-4.4c0-4.7-0.5-9.3-0.5-9.3S54.3,12.9,52.7,11.1z"/>
</g>
</svg>
